<svg xmlns="http://www.w3.org/2000/svg" viewBox="0 0 2120 2120">
  <rect width="2120" height="2120" rx="466" fill="#141617"/>
  <g transform="translate(353,497)">
    <g transform="translate(0.000000,1126.000000) scale(0.100000,-0.100000)" fill="#0ABFAE" stroke="none"><path d="M4928 11255 c-2 -3 -1104 -5 -2447 -5 -1640 0 -2449 -4 -2462 -11 -38 -20 -14 -82 45 -119 35 -21 483 -485 787 -815 102 -110 198 -207 215 -214 25 -13 298 -15 2024 -12 1744 2 2004 1 2070 -13 41 -8 109 -18 150 -21 41 -4 91 -13 110 -21 19 -7 69 -22 110 -33 365 -100 666 -310 880 -613 69 -97 150 -240 150 -264 0 -8 11 -37 25 -66 37 -80 84 -263 106 -413 46 -311 -1 -769 -105 -1005 -44 -101 -60 -131 -131 -248 -95 -156 -314 -378 -470 -477 -33 -21 -79 -51 -102 -67 -23 -15 -45 -28 -49 -28 -4 0 -34 -13 -68 -29 -104 -50 -195 -79 -341 -110 -184 -39 -308 -51 -530 -51 -188 0 -195 -1 -195 -40 0 -5 125 -136 279 -292 153 -156 314 -323 357 -373 43 -49 138 -150 210 -224 119 -120 135 -133 161 -128 55 9 169 38 248 62 44 13 96 29 115 34 63 17 244 94 315 134 11 6 45 24 75 40 30 16 62 34 70 41 8 7 26 18 40 24 14 7 52 31 85 53 33 22 73 47 89 57 62 38 295 232 374 312 101 102 233 266 305 379 12 19 34 53 50 75 15 23 39 64 53 91 14 28 43 82 65 120 21 39 46 86 54 105 8 19 24 53 35 75 20 41 47 113 82 220 11 33 29 83 39 110 10 28 24 77 30 110 6 33 19 96 31 140 46 184 71 690 44 893 -8 64 -17 151 -20 192 -3 42 -14 102 -24 135 -11 33 -25 94 -32 135 -11 74 -67 256 -94 308 -7 15 -17 43 -21 62 -6 31 -56 147 -88 205 -6 11 -24 45 -39 75 -59 114 -138 237 -252 390 -99 133 -393 425 -540 535 -378 284 -743 440 -1226 524 -205 36 -625 73 -642 56z M12512 10605 c-18 -8 -79 -63 -135 -122 -56 -60 -160 -169 -232 -243 -354 -368 -416 -432 -489 -510 -44 -47 -125 -132 -180 -190 -56 -58 -162 -168 -236 -245 -74 -77 -193 -201 -265 -275 -71 -74 -184 -191 -250 -260 -65 -69 -209 -217 -320 -330 -110 -113 -254 -262 -320 -330 -65 -69 -198 -206 -295 -305 -96 -100 -224 -232 -285 -295 -60 -63 -208 -217 -330 -341 -121 -124 -308 -317 -414 -430 -107 -112 -350 -363 -540 -558 -425 -436 -383 -392 -521 -541 -63 -69 -233 -244 -377 -390 -144 -146 -271 -277 -283 -292 -12 -15 -34 -41 -51 -57 -16 -16 -29 -37 -29 -46 0 -9 46 -60 102 -113 57 -53 221 -213 365 -356 144 -143 269 -263 277 -268 9 -5 25 -7 35 -3 17 5 277 265 368 368 23 26 48 47 55 47 14 0 203 -190 808 -810 223 -228 578 -590 790 -805 213 -214 456 -462 541 -550 84 -88 301 -308 480 -490 180 -181 382 -388 450 -460 450 -472 1337 -1374 1370 -1391 24 -12 142 -14 769 -13 724 2 741 2 751 21 6 11 9 22 7 24 -9 13 -259 273 -443 463 -232 238 -602 621 -1000 1036 -142 149 -455 470 -694 715 -599 611 -732 749 -911 940 -84 91 -244 258 -354 371 -111 113 -264 270 -340 350 -77 79 -277 284 -445 454 -804 815 -931 948 -931 969 0 10 33 52 73 93 39 42 121 129 182 192 60 64 175 184 255 266 80 83 188 195 240 250 137 145 390 405 654 675 127 130 287 294 355 365 244 255 639 663 847 875 572 584 1251 1286 1524 1575 63 66 285 297 494 513 210 216 382 402 384 413 8 47 26 46 -726 48 -389 1 -716 4 -727 6 -11 3 -35 -2 -53 -10z M550 9323 c-2 -90 2 -6500 5 -7003 1 -393 4 -987 5 -1318 2 -564 3 -605 20 -622 16 -16 53 -18 531 -18 283 -1 533 -4 556 -8 34 -5 45 -2 62 15 l21 21 2 2968 c1 1632 2 3001 2 3042 1 68 3 75 22 78 15 2 30 -12 59 -53 21 -31 45 -61 54 -68 26 -19 299 -303 526 -547 116 -123 291 -308 390 -410 99 -102 241 -251 315 -330 162 -174 437 -464 616 -650 71 -74 164 -171 205 -215 41 -44 158 -168 260 -275 101 -107 245 -260 319 -340 74 -80 205 -217 291 -305 86 -88 195 -201 241 -252 268 -296 414 -453 748 -803 113 -118 234 -246 270 -285 35 -38 107 -115 160 -170 52 -55 135 -143 184 -195 50 -52 142 -149 205 -215 105 -109 333 -350 532 -560 41 -44 133 -143 205 -219 191 -207 197 -213 221 -225 37 -19 1568 -14 1583 5 17 20 5 59 -24 78 -14 9 -42 35 -63 58 -67 75 -184 201 -263 283 -101 106 -332 354 -395 424 -48 54 -132 142 -395 416 -69 71 -152 159 -185 195 -192 208 -331 356 -341 365 -6 6 -33 35 -60 65 -26 30 -125 136 -219 235 -95 99 -216 230 -270 290 -79 88 -302 328 -398 427 -10 11 -50 56 -89 101 -40 45 -133 145 -207 222 -75 77 -173 181 -218 231 -44 50 -157 170 -251 265 -94 96 -199 205 -234 244 -34 38 -115 124 -178 190 -63 66 -185 194 -272 285 -86 91 -196 206 -245 256 -48 50 -133 138 -187 195 -136 142 -1042 1064 -1301 1324 -115 116 -296 299 -400 406 -445 455 -1284 1309 -1592 1619 -360 363 -485 491 -656 673 -90 96 -115 117 -139 117 -15 0 -28 -3 -28 -7z"/></g>
  </g>
</svg>
