<svg xmlns="http://www.w3.org/2000/svg" viewBox="378 16 1326 1391">
  <!-- Lockup R. Krug Consultoria - vetor oficial -->
  <g transform="translate(0.000000,1680.000000) scale(0.100000,-0.100000)" fill="#0ABFAE" stroke="none"><path d="M7670 16300 c-1375 -5 -1465 -6 -1468 -22 -2 -11 27 -47 81 -98 47 -45 168 -170 269 -278 100 -108 206 -221 234 -249 l51 -53 1188 0 c819 0 1216 -3 1274 -11 199 -26 418 -118 549 -230 179 -154 285 -353 323 -613 30 -201 -9 -494 -86 -647 -103 -205 -296 -386 -499 -468 -124 -49 -249 -72 -433 -78 -132 -5 -163 -9 -163 -20 0 -8 83 -98 184 -201 101 -103 198 -205 217 -227 67 -82 174 -185 191 -185 23 0 99 18 171 41 31 11 62 19 68 19 25 0 250 116 340 175 258 171 419 354 562 640 93 187 150 380 169 575 54 558 -98 1032 -451 1401 -257 270 -516 415 -874 489 -95 20 -385 53 -417 48 -8 -2 -674 -5 -1480 -8z M13625 15915 c-13 -5 -137 -129 -276 -275 -338 -354 -663 -693 -834 -870 -78 -80 -197 -203 -266 -275 -304 -316 -426 -442 -605 -625 -105 -107 -240 -247 -300 -311 -108 -115 -421 -438 -812 -841 -112 -115 -202 -215 -200 -222 4 -16 442 -446 455 -446 5 0 65 56 132 125 68 69 126 125 130 125 4 0 56 -51 117 -113 60 -61 325 -333 589 -602 719 -734 946 -967 1085 -1110 179 -185 478 -492 670 -687 l165 -168 448 0 c246 -1 452 2 457 5 17 11 11 22 -39 72 -27 26 -311 320 -631 653 -321 333 -676 700 -789 815 -113 116 -305 314 -425 440 -121 127 -405 419 -631 650 -446 456 -515 528 -515 539 0 4 40 49 88 99 402 419 638 664 762 792 81 83 216 222 301 310 210 217 840 866 1014 1045 78 80 224 232 326 338 101 106 250 261 331 345 98 101 147 159 148 174 l0 23 -436 2 c-275 2 -445 -1 -459 -7z M6530 15153 c0 -5 -1 -287 -2 -628 -1 -341 -1 -1532 0 -2646 2 -1631 5 -2029 15 -2037 12 -11 683 -20 693 -10 2 3 4 820 5 1816 1 997 5 1815 10 1817 4 3 20 -10 36 -29 15 -18 111 -121 212 -227 102 -107 264 -277 361 -379 97 -102 257 -270 355 -375 98 -104 220 -233 270 -285 51 -52 168 -176 261 -275 93 -99 223 -236 290 -305 66 -69 197 -208 290 -310 93 -102 221 -239 284 -305 63 -66 147 -154 185 -195 39 -41 149 -158 246 -260 96 -102 251 -266 344 -365 94 -99 204 -215 246 -258 l76 -78 461 1 c385 2 463 4 473 16 12 15 7 21 -180 219 -47 50 -140 149 -206 220 -66 72 -172 184 -236 250 -63 66 -209 221 -324 345 -115 124 -212 227 -215 230 -3 3 -37 39 -75 80 -37 41 -118 129 -180 195 -61 66 -133 145 -160 175 -27 30 -97 105 -155 166 -201 211 -427 450 -515 544 -254 272 -808 842 -1186 1219 -63 64 -189 193 -279 286 -91 94 -354 361 -585 595 -231 234 -502 510 -602 613 -157 162 -214 210 -213 180z"/></g>
  <g transform="translate(0.000000,1680.000000) scale(0.100000,-0.100000)" fill="#1D2021" stroke="none"><path d="M14157 7740 c-357 -65 -608 -297 -704 -650 -27 -101 -25 -358 4 -465 84 -308 291 -520 598 -610 128 -38 312 -45 446 -17 224 46 421 180 542 368 96 149 117 228 117 438 l0 156 -470 0 -470 0 0 -135 0 -135 296 0 296 0 -7 -37 c-11 -63 -63 -159 -115 -216 -178 -195 -546 -195 -743 0 -107 106 -157 240 -157 423 0 182 49 317 150 421 187 190 535 198 706 17 28 -29 55 -61 60 -71 9 -16 27 -17 211 -15 l201 3 -25 59 c-92 218 -288 384 -528 447 -90 23 -325 34 -408 19z M5710 6861 l0 -871 175 0 175 0 0 340 0 340 83 0 82 -1 172 -307 c95 -169 182 -322 193 -339 l20 -33 196 0 c176 0 196 2 190 16 -3 9 -92 162 -197 341 -104 178 -192 330 -195 337 -4 9 8 18 33 26 214 70 346 259 345 494 -2 245 -132 412 -387 497 -68 22 -83 23 -477 27 l-408 3 0 -870z m791 548 c62 -29 94 -67 115 -136 40 -131 -7 -258 -115 -310 -54 -27 -62 -28 -248 -31 l-193 -4 0 257 0 257 193 -4 c183 -3 195 -4 248 -29z M8540 6860 l0 -870 175 0 175 0 2 384 3 384 310 -383 310 -384 223 0 222 -1 -307 368 c-169 202 -334 398 -366 435 -32 38 -57 73 -55 77 3 8 124 155 565 688 l143 172 -212 -1 -213 0 -310 -386 -310 -386 -3 386 -2 387 -175 0 -175 0 0 -870z M10190 6861 l0 -871 175 0 175 0 0 340 0 340 83 0 82 -1 172 -307 c95 -169 182 -322 193 -339 l20 -33 196 0 c176 0 196 2 190 16 -3 9 -92 162 -197 341 -104 178 -192 330 -195 337 -4 9 8 18 33 26 214 70 346 259 345 494 -2 245 -132 412 -387 497 -68 22 -83 23 -477 27 l-408 3 0 -870z m791 548 c62 -29 94 -67 115 -136 40 -131 -7 -258 -115 -310 -54 -27 -62 -28 -248 -31 l-193 -4 0 257 0 257 193 -4 c183 -3 195 -4 248 -29z M11780 7145 c0 -661 2 -680 71 -822 102 -210 307 -336 569 -350 356 -19 628 146 727 441 l28 81 3 618 3 617 -178 -2 -178 -3 -5 -600 c-5 -600 -5 -600 -28 -650 -43 -94 -117 -152 -220 -174 -159 -33 -307 14 -379 122 -58 86 -57 74 -61 715 l-3 592 -174 0 -175 0 0 -585z M7354 6355 c-79 -39 -109 -90 -109 -180 0 -63 4 -77 29 -113 83 -120 277 -121 361 -3 27 38 30 51 30 116 0 65 -3 78 -30 116 -60 85 -184 114 -281 64z"/></g>
  <g transform="translate(0.000000,1680.000000) scale(0.100000,-0.100000)" fill="#047C71" stroke="none"><path d="M5540 4775 l0 -25 4860 0 4860 0 0 25 0 25 -4860 0 -4860 0 0 -25z M4285 3696 c-105 -33 -197 -113 -236 -203 -66 -152 -16 -346 114 -443 132 -100 339 -99 461 2 36 29 96 111 96 130 0 4 -30 8 -67 8 -66 0 -69 -1 -97 -36 -76 -96 -244 -99 -338 -7 -108 105 -97 320 20 410 101 77 270 58 325 -36 17 -30 21 -31 88 -31 51 0 69 3 69 13 0 21 -53 89 -101 130 -77 67 -231 96 -334 63z M5645 3696 c-104 -33 -196 -111 -237 -203 -34 -75 -32 -228 3 -304 36 -75 86 -130 156 -167 193 -102 422 -33 515 156 31 62 33 73 33 167 -1 88 -4 107 -28 155 -46 95 -122 161 -218 191 -69 22 -165 24 -224 5z m210 -111 c89 -36 138 -120 139 -235 1 -98 -21 -157 -79 -208 -126 -111 -333 -66 -392 86 -35 92 -21 214 33 289 60 81 193 112 299 68z M8229 3696 c-119 -42 -170 -161 -119 -273 24 -55 59 -75 197 -119 133 -41 169 -72 159 -133 -9 -56 -45 -84 -115 -89 -58 -4 -62 -3 -96 31 -19 19 -35 42 -35 51 0 13 -12 16 -65 16 -72 0 -77 -7 -54 -67 52 -140 305 -185 423 -75 59 56 82 154 52 226 -23 54 -77 90 -189 125 -127 39 -163 60 -172 101 -27 123 184 168 228 49 11 -28 14 -29 74 -29 58 0 63 2 63 22 0 64 -73 146 -151 168 -47 14 -157 12 -200 -4z M12975 3696 c-104 -33 -196 -111 -237 -203 -34 -75 -32 -228 3 -304 36 -75 86 -130 156 -167 193 -102 422 -33 515 156 31 62 33 73 33 167 -1 88 -4 107 -28 155 -46 95 -122 161 -218 191 -69 22 -165 24 -224 5z m210 -111 c89 -36 138 -120 139 -235 1 -98 -21 -157 -79 -208 -126 -111 -333 -66 -392 86 -35 92 -21 214 33 289 60 81 193 112 299 68z M6800 3340 l0 -360 60 0 60 0 2 264 3 265 170 -262 170 -262 63 -3 62 -3 0 361 0 360 -60 0 -60 0 -2 -264 -3 -264 -170 262 -170 261 -63 3 -62 3 0 -361z M9292 3428 c3 -257 4 -275 25 -313 48 -90 133 -137 247 -138 127 -1 210 40 263 130 l28 48 3 273 3 272 -60 0 -60 0 -3 -264 c-3 -296 -5 -301 -79 -338 -72 -37 -179 -15 -223 45 -20 27 -21 44 -24 293 l-3 264 -60 0 -60 0 3 -272z M10580 3340 l0 -360 185 0 185 0 0 50 0 50 -125 0 -125 0 0 310 0 310 -60 0 -60 0 0 -360z M11570 3650 l0 -50 95 0 95 0 0 -310 0 -310 60 0 60 0 0 310 0 310 95 0 95 0 0 50 0 50 -250 0 -250 0 0 -50z M14130 3341 l0 -361 60 0 60 0 0 145 0 145 44 0 44 0 81 -145 82 -145 70 0 70 0 -32 58 c-18 31 -57 97 -86 147 l-53 89 37 19 c81 41 122 105 123 190 0 85 -39 149 -115 190 -36 19 -59 22 -212 25 l-173 4 0 -361z m320 241 c50 -24 70 -84 50 -144 -21 -60 -60 -78 -167 -78 l-83 0 0 120 0 120 83 0 c58 0 92 -5 117 -18z M15340 3340 l0 -360 60 0 60 0 0 360 0 360 -60 0 -60 0 0 -360z M16267 3348 c-70 -194 -127 -357 -127 -361 0 -4 28 -7 62 -5 l61 3 25 73 24 73 151 -3 151 -3 25 -72 26 -73 63 0 c56 0 63 2 58 18 -4 9 -61 170 -129 357 l-122 340 -71 3 -71 3 -126 -353z m264 20 l48 -138 -114 0 c-63 0 -115 4 -115 8 0 6 72 211 106 302 7 18 7 18 75 -172z"/></g>
</svg>
